<svg xmlns="http://www.w3.org/2000/svg" xmlns:xlink="http://www.w3.org/1999/xlink" width="150" zoomAndPan="magnify" viewBox="0 0 112.5 37.5" height="50" preserveAspectRatio="xMidYMid meet" version="1.2"><defs/><g id="9e7a41b998"><g style="fill:#ffffff;fill-opacity:1;"><g transform="translate(14.241366, 29.802634)"><path style="stroke:none" d="M 2.203125 -22.109375 L 17.203125 -22.109375 L 17.203125 -17.84375 L 6.953125 -17.84375 L 6.953125 -13.109375 L 16.578125 -13.109375 L 16.578125 -9.15625 L 6.953125 -9.15625 L 6.953125 -4.265625 L 17.53125 -4.265625 L 17.53125 0 L 2.203125 0 Z M 2.203125 -22.109375 "/></g></g><g style="fill:#ffffff;fill-opacity:1;"><g transform="translate(33.184073, 29.802634)"><path style="stroke:none" d="M 11.6875 0.3125 C 10.101562 0.3125 8.671875 0.0625 7.390625 -0.4375 C 6.109375 -0.945312 5.015625 -1.6875 4.109375 -2.65625 C 3.203125 -3.625 2.5 -4.8125 2 -6.21875 C 1.507812 -7.632812 1.265625 -9.242188 1.265625 -11.046875 C 1.265625 -12.859375 1.507812 -14.46875 2 -15.875 C 2.5 -17.289062 3.203125 -18.484375 4.109375 -19.453125 C 5.015625 -20.421875 6.109375 -21.15625 7.390625 -21.65625 C 8.671875 -22.164062 10.101562 -22.421875 11.6875 -22.421875 C 13.070312 -22.421875 14.296875 -22.238281 15.359375 -21.875 C 16.421875 -21.519531 17.347656 -21.019531 18.140625 -20.375 C 18.929688 -19.738281 19.585938 -18.976562 20.109375 -18.09375 C 20.640625 -17.207031 21.039062 -16.226562 21.3125 -15.15625 L 16.421875 -15.15625 C 16.234375 -15.601562 16 -16.003906 15.71875 -16.359375 C 15.445312 -16.710938 15.125 -17.023438 14.75 -17.296875 C 14.382812 -17.578125 13.945312 -17.789062 13.4375 -17.9375 C 12.9375 -18.082031 12.351562 -18.15625 11.6875 -18.15625 C 10.863281 -18.15625 10.101562 -18.003906 9.40625 -17.703125 C 8.71875 -17.410156 8.117188 -16.96875 7.609375 -16.375 C 7.109375 -15.789062 6.710938 -15.050781 6.421875 -14.15625 C 6.140625 -13.269531 6 -12.234375 6 -11.046875 C 6 -9.867188 6.140625 -8.832031 6.421875 -7.9375 C 6.710938 -7.039062 7.109375 -6.296875 7.609375 -5.703125 C 8.117188 -5.117188 8.71875 -4.679688 9.40625 -4.390625 C 10.101562 -4.097656 10.863281 -3.953125 11.6875 -3.953125 C 12.351562 -3.953125 12.9375 -4.023438 13.4375 -4.171875 C 13.945312 -4.316406 14.382812 -4.523438 14.75 -4.796875 C 15.125 -5.066406 15.445312 -5.378906 15.71875 -5.734375 C 16 -6.097656 16.234375 -6.503906 16.421875 -6.953125 L 21.3125 -6.953125 C 21.039062 -5.878906 20.640625 -4.898438 20.109375 -4.015625 C 19.585938 -3.128906 18.929688 -2.363281 18.140625 -1.71875 C 17.347656 -1.082031 16.421875 -0.582031 15.359375 -0.21875 C 14.296875 0.132812 13.070312 0.3125 11.6875 0.3125 Z M 11.6875 0.3125 "/></g></g><g style="fill:#ffffff;fill-opacity:1;"><g transform="translate(54.810289, 29.802634)"><path style="stroke:none" d="M 7.734375 -22.109375 L 13.578125 -22.109375 L 21.46875 0 L 16.578125 0 L 15.15625 -4.109375 L 6.15625 -4.109375 L 4.734375 0 L -0.15625 0 Z M 13.609375 -8.375 L 10.734375 -16.734375 L 10.578125 -16.734375 L 7.703125 -8.375 Z M 13.609375 -8.375 "/></g></g><g style="fill:#ffffff;fill-opacity:1;"><g transform="translate(75.489363, 29.802634)"><path style="stroke:none" d="M 11.6875 0.3125 C 10.101562 0.3125 8.671875 0.0625 7.390625 -0.4375 C 6.109375 -0.945312 5.015625 -1.6875 4.109375 -2.65625 C 3.203125 -3.625 2.5 -4.8125 2 -6.21875 C 1.507812 -7.632812 1.265625 -9.242188 1.265625 -11.046875 C 1.265625 -12.859375 1.507812 -14.46875 2 -15.875 C 2.5 -17.289062 3.203125 -18.484375 4.109375 -19.453125 C 5.015625 -20.421875 6.109375 -21.15625 7.390625 -21.65625 C 8.671875 -22.164062 10.101562 -22.421875 11.6875 -22.421875 C 13.070312 -22.421875 14.296875 -22.238281 15.359375 -21.875 C 16.421875 -21.519531 17.347656 -21.019531 18.140625 -20.375 C 18.929688 -19.738281 19.585938 -18.976562 20.109375 -18.09375 C 20.640625 -17.207031 21.039062 -16.226562 21.3125 -15.15625 L 16.421875 -15.15625 C 16.234375 -15.601562 16 -16.003906 15.71875 -16.359375 C 15.445312 -16.710938 15.125 -17.023438 14.75 -17.296875 C 14.382812 -17.578125 13.945312 -17.789062 13.4375 -17.9375 C 12.9375 -18.082031 12.351562 -18.15625 11.6875 -18.15625 C 10.863281 -18.15625 10.101562 -18.003906 9.40625 -17.703125 C 8.71875 -17.410156 8.117188 -16.96875 7.609375 -16.375 C 7.109375 -15.789062 6.710938 -15.050781 6.421875 -14.15625 C 6.140625 -13.269531 6 -12.234375 6 -11.046875 C 6 -9.867188 6.140625 -8.832031 6.421875 -7.9375 C 6.710938 -7.039062 7.109375 -6.296875 7.609375 -5.703125 C 8.117188 -5.117188 8.71875 -4.679688 9.40625 -4.390625 C 10.101562 -4.097656 10.863281 -3.953125 11.6875 -3.953125 C 12.351562 -3.953125 12.9375 -4.023438 13.4375 -4.171875 C 13.945312 -4.316406 14.382812 -4.523438 14.75 -4.796875 C 15.125 -5.066406 15.445312 -5.378906 15.71875 -5.734375 C 16 -6.097656 16.234375 -6.503906 16.421875 -6.953125 L 21.3125 -6.953125 C 21.039062 -5.878906 20.640625 -4.898438 20.109375 -4.015625 C 19.585938 -3.128906 18.929688 -2.363281 18.140625 -1.71875 C 17.347656 -1.082031 16.421875 -0.582031 15.359375 -0.21875 C 14.296875 0.132812 13.070312 0.3125 11.6875 0.3125 Z M 11.6875 0.3125 "/></g></g></g></svg>