<svg xmlns="http://www.w3.org/2000/svg" xmlns:xlink="http://www.w3.org/1999/xlink" width="48" zoomAndPan="magnify" viewBox="0 0 36 43.92" height="48" preserveAspectRatio="xMidYMid meet" version="1.2"><defs><clipPath id="666a5a42da"><path d="M 6.320312 6.289062 L 29.53125 6.289062 L 29.53125 29.496094 L 6.320312 29.496094 Z M 6.320312 6.289062 "/></clipPath></defs><g id="3a3b9ed586"><g clip-rule="nonzero" clip-path="url(#666a5a42da)"><path style=" stroke:none;fill-rule:nonzero;fill:#0fbcf9;fill-opacity:1;" d="M 29.53125 17.894531 C 29.53125 18.65625 29.453125 19.410156 29.304688 20.15625 C 29.15625 20.902344 28.9375 21.628906 28.644531 22.332031 C 28.355469 23.039062 27.996094 23.707031 27.574219 24.339844 C 27.152344 24.972656 26.667969 25.558594 26.128906 26.097656 C 25.59375 26.636719 25.003906 27.117188 24.371094 27.542969 C 23.738281 27.964844 23.070312 28.320312 22.367188 28.613281 C 21.664062 28.90625 20.9375 29.125 20.1875 29.273438 C 19.441406 29.421875 18.6875 29.496094 17.925781 29.496094 C 17.164062 29.496094 16.410156 29.421875 15.660156 29.273438 C 14.914062 29.125 14.1875 28.90625 13.484375 28.613281 C 12.78125 28.320312 12.113281 27.964844 11.480469 27.542969 C 10.84375 27.117188 10.257812 26.636719 9.71875 26.097656 C 9.179688 25.558594 8.699219 24.972656 8.277344 24.339844 C 7.855469 23.707031 7.496094 23.039062 7.203125 22.332031 C 6.914062 21.628906 6.691406 20.902344 6.542969 20.15625 C 6.394531 19.410156 6.320312 18.65625 6.320312 17.894531 C 6.320312 17.132812 6.394531 16.375 6.542969 15.628906 C 6.691406 14.882812 6.914062 14.15625 7.203125 13.453125 C 7.496094 12.75 7.855469 12.078125 8.277344 11.445312 C 8.699219 10.8125 9.179688 10.226562 9.71875 9.6875 C 10.257812 9.148438 10.84375 8.667969 11.480469 8.246094 C 12.113281 7.820312 12.78125 7.464844 13.484375 7.171875 C 14.1875 6.878906 14.914062 6.660156 15.660156 6.511719 C 16.410156 6.363281 17.164062 6.289062 17.925781 6.289062 C 18.6875 6.289062 19.441406 6.363281 20.1875 6.511719 C 20.9375 6.660156 21.664062 6.878906 22.367188 7.171875 C 23.070312 7.464844 23.738281 7.820312 24.371094 8.246094 C 25.003906 8.667969 25.59375 9.148438 26.128906 9.6875 C 26.667969 10.226562 27.152344 10.8125 27.574219 11.445312 C 27.996094 12.078125 28.355469 12.75 28.644531 13.453125 C 28.9375 14.15625 29.15625 14.882812 29.304688 15.628906 C 29.453125 16.375 29.53125 17.132812 29.53125 17.894531 Z M 29.53125 17.894531 "/></g><path style=" stroke:none;fill-rule:evenodd;fill:#ffffff;fill-opacity:1;" d="M 16.175781 20.164062 L 18.460938 24.734375 C 18.492188 24.796875 18.546875 24.828125 18.617188 24.828125 C 18.691406 24.824219 18.738281 24.789062 18.765625 24.722656 L 23.765625 12.222656 C 23.792969 12.15625 23.78125 12.097656 23.730469 12.042969 C 23.679688 11.992188 23.617188 11.980469 23.550781 12.007812 L 11.050781 17.007812 C 10.984375 17.03125 10.949219 17.082031 10.945312 17.15625 C 10.941406 17.226562 10.972656 17.277344 11.039062 17.3125 L 15.609375 19.597656 L 17.953125 17.253906 C 18.03125 17.171875 18.125 17.132812 18.238281 17.128906 C 18.351562 17.128906 18.445312 17.167969 18.523438 17.246094 C 18.605469 17.328125 18.644531 17.421875 18.640625 17.535156 C 18.640625 17.644531 18.601562 17.742188 18.519531 17.820312 Z M 24.507812 12.523438 C 24.578125 12.34375 24.597656 12.15625 24.558594 11.96875 C 24.519531 11.777344 24.429688 11.617188 24.292969 11.480469 C 24.15625 11.34375 23.992188 11.253906 23.804688 11.214844 C 23.613281 11.175781 23.429688 11.191406 23.25 11.265625 L 10.753906 16.261719 C 10.367188 16.417969 10.164062 16.703125 10.148438 17.121094 C 10.132812 17.535156 10.308594 17.835938 10.679688 18.023438 L 15.339844 20.355469 C 15.375 20.371094 15.398438 20.394531 15.414062 20.429688 L 17.746094 25.09375 C 17.933594 25.464844 18.234375 25.644531 18.648438 25.625 C 19.066406 25.609375 19.351562 25.40625 19.507812 25.023438 Z M 24.507812 12.523438 "/></g></svg>